<svg width="24" height="25" viewBox="0 0 24 25" fill="none" xmlns="http://www.w3.org/2000/svg">
<path id="Arrow 1" d="M1.58579 19.7782L0.171573 21.1924L3 24.0208L4.41421 22.6066L1.58579 19.7782ZM23.3848 2.80761C23.3848 1.70304 22.4893 0.807606 21.3848 0.807607L3.38478 0.807607C2.28021 0.807607 1.38478 1.70304 1.38478 2.80761C1.38478 3.91218 2.28021 4.80761 3.38478 4.80761L19.3848 4.80761L19.3848 20.8076C19.3848 21.9122 20.2802 22.8076 21.3848 22.8076C22.4893 22.8076 23.3848 21.9122 23.3848 20.8076L23.3848 2.80761ZM4.41421 22.6066L22.799 4.22182L19.9706 1.39339L1.58579 19.7782L4.41421 22.6066Z" fill="black"/>
</svg>
