<svg width="38" height="38" viewBox="0 0 38 38" fill="none" xmlns="http://www.w3.org/2000/svg">
<rect width="38" height="38" rx="19" fill="white"/>
<path d="M26.6528 27.3598C26.8515 27.5515 27.168 27.5459 27.3598 27.3472C27.5515 27.1485 27.5459 26.832 27.3472 26.6402L26.6528 27.3598ZM23.4285 17.2382C23.4285 20.3907 20.7751 22.9764 17.4642 22.9764V23.9764C21.2936 23.9764 24.4285 20.9762 24.4285 17.2382H23.4285ZM17.4642 22.9764C14.1534 22.9764 11.5 20.3907 11.5 17.2382H10.5C10.5 20.9762 13.6349 23.9764 17.4642 23.9764V22.9764ZM11.5 17.2382C11.5 14.0857 14.1534 11.5 17.4642 11.5V10.5C13.6349 10.5 10.5 13.5002 10.5 17.2382H11.5ZM17.4642 11.5C20.7751 11.5 23.4285 14.0857 23.4285 17.2382H24.4285C24.4285 13.5002 21.2936 10.5 17.4642 10.5V11.5ZM27.3472 26.6402L21.6587 21.1506L20.9643 21.8702L26.6528 27.3598L27.3472 26.6402Z" fill="black"/>
</svg>
