<svg width="80" height="19" viewBox="0 0 80 19" fill="none" xmlns="http://www.w3.org/2000/svg">
<path d="M22.2112 0.325884V5.7598L5.91481 14.599H22.2112V18.3182H0V12.8843L16.2964 4.0451H0V0.325884H22.2112Z" fill="white"/>
<path d="M40.809 14.599C42.0035 14.6312 42.5761 14.0596 42.527 12.8843C42.5761 11.725 42.0035 11.1615 40.809 11.1937H29.9857V14.599H40.809ZM29.9857 4.0451V7.4745H39.8519C41.0463 7.5067 41.619 6.93514 41.5699 5.7598C41.619 4.58446 41.0463 4.0129 39.8519 4.0451H29.9857ZM24.4145 18.3182V0.325884H41.6435C43.476 0.293684 44.8504 0.728397 45.7667 1.63002C46.6993 2.53165 47.1656 3.75529 47.1656 5.30094C47.1656 6.34747 47.0102 7.16859 46.6993 7.76431C46.3884 8.36003 45.9548 8.81889 45.3985 9.1409C46.233 9.36631 46.8957 9.80102 47.3865 10.445C47.8774 11.073 48.1228 12.039 48.1228 13.3431C48.1228 14.116 48.0083 14.8163 47.7792 15.4442C47.5501 16.0561 47.1983 16.5793 46.7239 17.014C46.2657 17.4488 45.6931 17.7869 45.0059 18.0284C44.3187 18.2538 43.5169 18.3504 42.6007 18.3182H24.4145Z" fill="white"/>
<path d="M55.7987 4.0451V9.33411L64.6832 9.30996H65.8367C65.9512 9.30996 66.0331 9.30191 66.0821 9.28581H66.1312C66.2621 9.26971 66.3848 9.24556 66.4994 9.21336C66.6303 9.18115 66.7448 9.14895 66.843 9.11675H66.8921C66.9248 9.10065 66.9575 9.0926 66.9902 9.0926C67.023 9.0765 67.0557 9.0604 67.0884 9.0443C67.0884 9.0282 67.1048 9.02015 67.1375 9.02015C67.3993 8.89135 67.612 8.72229 67.7756 8.51298C67.8083 8.48078 67.8247 8.45663 67.8247 8.44053C67.841 8.42443 67.8656 8.40028 67.8983 8.36808V8.34393C67.9965 8.18292 68.0701 7.99777 68.1192 7.78846V7.74016C68.1356 7.70796 68.1437 7.64356 68.1437 7.54695V7.49865C68.1601 7.45035 68.1683 7.3779 68.1683 7.2813V5.90471C68.1519 5.8564 68.1437 5.78395 68.1437 5.68735L68.1192 5.6632C68.1192 5.6149 68.1028 5.54244 68.0701 5.44584V5.42169C68.0374 5.32509 68.0128 5.26068 67.9965 5.22848C67.9965 5.21238 67.9883 5.19628 67.9719 5.18018L67.8983 5.03528C67.8983 5.01918 67.882 4.99503 67.8492 4.96283C67.8329 4.94673 67.8083 4.90647 67.7756 4.84207L67.702 4.76962C67.6692 4.73742 67.6447 4.70522 67.6283 4.67302C67.5956 4.65692 67.5547 4.62472 67.5056 4.57641C67.4893 4.57641 67.4647 4.56031 67.432 4.52811C66.9902 4.2061 66.303 4.0451 65.3704 4.0451H55.7987ZM69.9844 12.522C69.9681 12.5381 69.9517 12.5462 69.9354 12.5462C69.9354 12.5462 69.9272 12.5542 69.9108 12.5703L73.8377 18.3182H67.9474L64.3396 13.0292H55.7987V18.3182H50.2275V0.325884H66.3521V0.350036C68.4955 0.301734 70.1481 0.688146 71.3098 1.50927C71.3752 1.57367 71.4325 1.61392 71.4816 1.63002L72.1197 2.25794C72.2178 2.38675 72.2833 2.4914 72.316 2.5719C72.3487 2.588 72.3815 2.62826 72.4142 2.69266C72.4469 2.75706 72.4796 2.82146 72.5124 2.88586C72.5451 2.93416 72.5778 2.99857 72.6105 3.07907C72.6269 3.09517 72.6351 3.11127 72.6351 3.12737C72.6351 3.14347 72.6432 3.15957 72.6596 3.17567C72.6923 3.25617 72.7169 3.32863 72.7332 3.39303C72.766 3.45743 72.7987 3.52988 72.8314 3.61038C72.8314 3.65869 72.8396 3.69089 72.8559 3.70699C72.8887 3.78749 72.905 3.87604 72.905 3.97265C72.9214 4.05315 72.9378 4.13365 72.9541 4.21415C72.9705 4.24635 72.9787 4.26245 72.9787 4.26245C72.995 4.35906 73.0032 4.45566 73.0032 4.55226C73.0196 4.64887 73.0359 4.75352 73.0523 4.86622V8.15072C73.0523 8.23123 73.0523 8.31978 73.0523 8.41638C73.0523 8.49688 73.0441 8.57738 73.0277 8.65789V8.77864C73.0114 8.85914 72.995 8.93965 72.9787 9.02015C72.9787 9.10065 72.9705 9.18115 72.9541 9.26166C72.9541 9.27776 72.9459 9.29386 72.9296 9.30996C72.9296 9.30996 72.9296 9.31801 72.9296 9.33411C72.8314 9.80102 72.6678 10.2357 72.4387 10.6382C72.4224 10.6543 72.4142 10.6704 72.4142 10.6865C72.4142 10.6865 72.406 10.6946 72.3896 10.7107C72.3569 10.7751 72.316 10.8395 72.2669 10.9039C72.2342 10.9522 72.1933 11.0086 72.1442 11.073L72.0706 11.1454C71.6943 11.5962 71.187 11.9826 70.5489 12.3046C70.5162 12.3046 70.4835 12.3207 70.4508 12.353C70.3362 12.4174 70.1808 12.4737 69.9844 12.522Z" fill="white"/>
<path d="M75.0669 18.3182V14.599H80V18.3182H75.0669Z" fill="white"/>
</svg>
