<svg width="114" height="42" viewBox="0 0 114 42" fill="none" xmlns="http://www.w3.org/2000/svg">
<g clip-path="url(#clip0_1772_3282)">
<path d="M114.006 40.434C106.597 35.876 107.231 34.4446 102.691 26.4674C92.3482 6.27461 67.8232 -3.47465 45.6398 1.08731C34.8526 3.30524 26.6265 8.79155 26.0685 9.18937C24.2734 10.4686 20.4049 13.2664 16.6334 18.0078C11.8201 24.0596 9.04442 29.7422 9.04442 29.7422C7.92344 32.0382 6.98376 34.3679 4.59752 36.864C2.90711 38.6334 1.18989 39.7567 -0.0102539 40.434H13.0572C13.5245 37.9197 14.2752 34.9412 15.5048 31.704C16.5479 28.957 17.7186 26.5974 18.8358 24.6381C19.0235 25.7042 19.4754 27.4853 20.6768 29.3574C21.808 31.119 23.1282 32.2189 23.9811 32.826C24.5505 31.0111 25.4059 28.8192 26.7159 26.4791C27.7781 24.5796 28.9016 23.0066 29.9294 21.7416C29.1812 24.1727 28.4727 27.0368 27.9849 30.2805C27.4091 34.1105 27.2776 37.5492 27.3453 40.434H36.9043C35.7463 37.947 34.0661 33.3603 34.5397 27.64C35.2049 19.6056 39.7872 13.3548 41.5325 12.0144C41.7623 11.8376 43.2101 10.7742 43.0327 10.4101C42.9752 10.2918 42.7645 10.2866 42.6943 10.2853C41.3857 10.2554 34.993 20.0905 35.0722 29.165C35.0722 29.165 35.1117 33.7036 37.0128 36.9407C37.4495 37.6844 37.9704 38.3227 37.9704 38.3227C38.4172 38.8661 38.7939 39.2094 38.979 39.3979C38.979 39.3979 40.2276 40.5107 41.9385 41.1361C46.6037 42.8405 50.9778 40.2689 51.8831 39.7099C61.5276 44.359 75.2386 41.6951 82.1841 33.6594C84.1656 30.8044 86.0692 27.5399 84.3328 23.7892C80.0315 17.6529 73.8495 22.1108 67.9739 23.4226C65.5876 23.6592 65.2914 21.1604 65.9975 19.668C67.5002 14.7446 76.2421 9.18807 83.2795 12.316C84.5218 12.8686 85.6645 13.8007 85.6645 13.8007C86.0053 14.1505 86.5148 14.7563 86.8633 15.6325C87.351 16.8585 87.2668 17.9714 87.1966 18.6175C86.7254 22.9767 84.4477 29.0246 84.2319 29.6395C83.2437 32.4594 82.7509 33.8687 81.8342 35.2858C80.1681 37.8612 78.1227 39.4798 76.6723 40.4327H91.9269C90.7982 39.9127 89.7615 38.6737 89.9952 36.9967C90.1573 35.3209 91.5273 29.7851 93.685 22.3578C95.2362 24.4301 96.9854 27.1304 98.5519 30.469C100.314 34.2262 101.322 37.6805 101.919 40.434H114.003H114.006ZM23.4678 24.5445C22.9035 23.4434 22.3928 21.2164 22.4171 19.9839C24.0181 17.8921 26.3877 15.2321 29.706 12.7009C33.2017 10.0331 36.5481 8.42623 39.0543 7.44987C33.7265 11.341 27.4487 17.6958 23.4678 24.5432V24.5445ZM51.1617 32.3879C46.8706 37.3503 40.649 36.1126 41.0039 28.9622C41.7036 19.1193 47.9379 11.1161 52.2278 10.4101C54.254 10.0864 55.9022 10.5375 56.7704 13.633C58.6332 17.7335 54.3063 29.9542 51.1617 32.3879ZM78.3908 25.7874C78.7164 26.3243 78.1929 27.1967 77.9184 27.6595C77.7129 28.0053 77.3465 28.5228 76.7196 29.0181C73.5073 32.4178 66.0485 33.9753 63.3406 33.4019C63.3712 33.3395 63.3035 31.1164 63.3035 31.1164C63.3035 31.1164 61.465 29.8176 60.3172 30.3234C59.4401 32.0031 58.0229 33.844 56.4921 35.4847C58.1902 33.1666 59.9687 29.8384 61.2569 26.1176C61.2633 26.1254 61.2659 26.1306 61.2659 26.1306C61.2556 26.141 59.8831 24.5562 59.827 24.603C59.7759 24.6459 60.6351 26.0968 62.1545 27.3514C62.5388 27.6686 62.9856 28.0365 63.6163 28.3551C65.5851 29.3496 67.6202 28.9908 68.8484 28.7581C70.5069 28.4435 71.7096 27.8805 72.4821 27.5139C74.7062 26.4557 76.4476 25.0464 77.8074 25.4091C78.2095 25.517 78.3487 25.7185 78.3908 25.7861V25.7874ZM62.9869 13.4107C62.6333 10.3919 61.5953 7.54738 59.5908 5.17994C59.1554 4.77042 58.706 4.4259 58.2464 4.13598C62.9729 4.31149 67.6904 5.18124 72.1986 6.74003C68.5114 7.59938 65.2276 10.2411 62.9869 13.4107Z" fill="black"/>
<path d="M107.359 36.8557C105.095 34.2828 104.013 31.8205 103.621 30.9624C101.138 25.5268 97.0067 20.3473 95.9776 19.0577C95.1324 17.9981 91.4745 13.5064 85.7853 9.54503C73.4367 0.943742 60.2555 0.92164 55.7091 0.974943C48.0396 1.06595 42.422 2.74825 40.872 3.23577C37.8742 4.17833 30.5304 6.80707 23.1865 13.1553C20.7033 15.3018 17.9531 17.6796 15.3601 21.6435C14.8251 22.4613 11.4315 27.7266 8.96996 32.8319C8.66737 33.4599 7.88218 35.1851 6.28625 37.0143C5.41551 38.0114 4.5869 38.7187 4.03662 39.1516C5.24825 39.1373 6.52117 39.084 7.85026 38.9826C8.63418 38.9228 9.39384 38.8474 10.1318 38.7616C11.0932 35.0967 13.4781 27.5888 19.235 20.3239C19.1137 21.585 19.0218 24.3737 20.49 27.3495C21.3774 29.1475 22.5188 30.3722 23.3372 31.1146C23.8428 29.6741 24.5194 28.075 25.4336 26.4005C27.3832 22.8266 29.6966 20.2238 31.5798 18.4479C30.4793 21.7111 29.417 25.7153 28.7825 30.3527C28.3356 33.6107 28.1799 36.6009 28.1824 39.2387H33.1285C31.382 33.9461 31.5696 29.7105 31.8799 27.3001C33.1566 17.3559 40.254 9.24601 46.9761 5.4355C44.4967 7.51691 42.6237 10.3615 41.6725 11.8072C36.7162 19.3372 33.901 30.7089 38.2419 36.2537C38.6351 36.7556 39.7242 38.1129 41.5921 38.8474C45.1363 40.2411 48.7827 38.3313 50.0326 37.6773C60.0959 32.4094 64.0564 9.88955 57.1096 4.37334C55.5814 3.15907 53.7927 2.98096 53.3624 2.94846C52.7432 2.90166 52.1367 2.94326 51.5481 3.05766C51.5877 3.03426 51.626 3.01086 51.6618 2.98876C52.9232 2.86525 54.2676 2.77945 55.6861 2.75345C65.2068 2.58054 72.6693 5.15728 76.58 6.83698C74.73 6.90848 72.2199 7.30111 69.6141 8.66488C69.2196 8.87159 63.9887 11.711 61.7238 17.8694C61.7238 17.8694 60.2798 21.7956 61.2578 24.3477C61.7953 25.7491 62.7567 26.4837 62.7567 26.4837C63.1486 26.745 63.7704 27.1077 64.5888 27.3651C65.7468 27.7305 66.9048 27.7617 68.1522 27.5693C71.7948 27.0037 74.4312 24.7923 76.9515 24.4699C77.4188 24.4101 78.4709 24.2892 79.0122 24.921C79.0122 24.921 79.136 25.0705 79.2178 25.2642C79.7719 26.5734 78.227 28.387 77.604 29.1189C77.1277 29.6793 74.6202 32.5017 69.1506 34.0137C67.51 34.4674 64.9284 34.9862 61.6561 34.8276C61.6434 34.5467 61.6332 34.2646 61.6229 33.9799C61.6051 33.4599 61.591 32.9451 61.5808 32.4367C61.4621 32.3301 61.2425 32.1689 60.9309 32.1065C60.8301 32.0857 60.7369 32.0805 60.6564 32.0805C60.0206 33.2597 59.1486 34.6365 57.9587 36.0483C57.1556 37.0026 56.3525 37.7982 55.6107 38.4561C57.439 38.8825 60.0372 39.305 63.155 39.2023C68.6208 39.0216 72.5059 37.3341 73.2745 36.9896C74.9981 36.2173 79.5255 34.119 82.3394 29.5363C83.7502 27.239 83.7183 25.9585 83.5383 25.1615C83.1833 23.5884 81.8734 22.3417 80.5405 21.8034C79.7527 21.4862 79.0518 21.455 78.4747 21.4654C75.2318 21.52 73.5797 22.8656 69.0868 24.0031C67.796 24.3308 65.9562 24.7195 64.7522 23.838C64.2071 23.4376 63.9045 22.8682 63.9045 22.8682C63.9045 22.8682 63.4359 21.9854 63.6402 20.6711C63.8355 19.4191 65.48 14.6595 70.5933 11.7825C71.8497 11.0752 75.8306 9.0679 80.4728 9.96755C81.9615 10.2562 83.2944 10.7996 84.326 11.3079C84.2698 11.3989 86.6931 12.3896 87.7336 14.5451C88.3797 15.8829 88.3222 17.3208 88.0937 18.4791C87.3021 21.7631 86.5067 24.9223 85.71 28.036C85.0487 30.6166 84.2481 33.8967 81.7878 37.3458C81.2223 38.1389 80.7013 38.7564 80.3387 39.1646H88.1077C88.0158 38.9787 87.8422 38.6069 87.6992 38.118C87.2357 36.5281 87.5077 35.124 87.6673 34.3881C88.0631 32.5602 89.6271 26.0586 91.9954 17.2597C92.3478 17.6146 92.6223 17.9032 92.8151 18.1086C99.9713 25.753 102.906 34.0449 104.153 38.6615C104.696 38.7525 105.263 38.8331 105.851 38.8994C107.207 39.0528 108.478 39.1087 109.648 39.1035C109.083 38.6277 108.254 37.8762 107.357 36.857L107.359 36.8557ZM52.5274 6.53406C52.7547 6.55486 54.1476 6.69917 55.3069 7.65212C61.0867 12.4026 55.8865 32.9607 47.9605 35.6245C47.0872 35.9183 44.1302 36.9116 41.7721 35.4386C40.7201 34.7808 40.1774 33.8759 39.94 33.4716C37.5282 29.3582 38.6045 20.7608 43.2608 13.7248C44.7584 11.4613 48.2784 6.14404 52.5274 6.53406ZM19.235 20.3213C19.9053 19.475 20.6228 18.6312 21.3876 17.7979C20.6701 18.639 19.9525 19.4802 19.235 20.3213ZM45.5168 4.09772C43.1127 5.34579 33.8193 10.4343 26.1256 21.728C25.4157 22.7694 24.3356 24.4283 23.1533 26.5877C22.7614 25.9988 22.3656 25.2876 22.0336 24.453C20.9484 21.7202 21.159 19.1903 21.3952 17.7914C22.6273 16.4497 23.9858 15.134 25.4847 13.8691C27.3423 12.3012 32.9843 7.80553 41.5755 5.04547C42.4449 4.76596 43.9336 4.31484 45.9151 3.88711C45.7313 3.98202 45.5934 4.05872 45.5168 4.09772ZM77.2848 7.14769C77.7099 7.33881 78.0802 7.51301 78.3917 7.66252C80.1894 8.52707 81.8313 9.45012 83.3136 10.3797C80.9056 8.9652 78.8245 7.89654 77.2835 7.14769H77.2848ZM91.3596 16.6317C91.592 16.8553 91.8026 17.0634 91.9903 17.2519C91.7797 17.0452 91.569 16.8384 91.3596 16.6317Z" fill="#E1FF2D"/>
<path d="M39.4404 11.8326C40.6087 10.5442 42.8379 8.21189 45.0709 6.5465C46.0872 5.78855 47.1188 5.15022 47.129 5.14372C47.3077 5.03321 47.4827 4.92791 47.6512 4.8291C47.6244 4.8473 47.5988 4.8668 47.572 4.885C47.1507 5.18402 46.8519 5.42714 46.7089 5.54414C45.6224 6.42819 44.4951 7.56965 43.3575 8.93863L39.4404 11.8326Z" fill="black"/>
<path d="M46.5412 5.59827C45.4917 6.46802 44.4078 7.57438 43.3149 8.89005L42.808 9.26448L39.9417 11.3823C41.1776 10.051 43.1425 8.06451 45.11 6.59802C45.6322 6.208 46.1544 5.85308 46.5412 5.59827ZM50.1531 3.46875C50.1442 3.46875 48.8202 4.02388 47.0979 5.08734C47.0979 5.08734 46.0663 5.72438 45.0346 6.49272C42.3241 8.51303 39.68 11.459 38.9727 12.2585C40.4499 11.1678 41.9258 10.077 43.403 8.98626C44.2456 7.97091 45.424 6.67343 46.7506 5.59437C46.9089 5.46566 47.2013 5.22905 47.6098 4.93783C49.0066 3.94588 50.1544 3.47135 50.1531 3.46875Z" fill="black"/>
</g>
<defs>
<clipPath id="clip0_1772_3282">
<rect width="114" height="42" fill="white"/>
</clipPath>
</defs>
</svg>
