<svg width="1321" height="96" viewBox="0 0 1321 96" fill="none" xmlns="http://www.w3.org/2000/svg">
<path d="M116.529 0.333009V29.012L31.5358 75.6632H116.529V95.2924H0.6875V66.6134L85.6803 19.9622H0.6875V0.333009H116.529Z" fill="#212CFF"/>
<path d="M190.356 19.7073L169.492 58.4558H211.092L190.356 19.7073ZM149.652 95.2924H118.932L170.004 0.333009H210.708L261.653 95.2924H230.933L221.717 78.085H158.868L149.652 95.2924Z" fill="#212CFF"/>
<path d="M353.026 75.6632C359.255 75.8331 362.242 72.8165 361.986 66.6134C362.242 60.4952 359.255 57.521 353.026 57.691H296.577V75.6632H353.026ZM296.577 19.9622V38.0618H348.034C354.263 38.2318 357.25 35.2152 356.994 29.012C357.25 22.8088 354.263 19.7922 348.034 19.9622H296.577ZM267.521 95.2924V0.333009H357.378C366.935 0.163062 374.103 2.45738 378.882 7.21597C383.746 11.9746 386.178 18.4326 386.178 26.5902C386.178 32.1136 385.367 36.4473 383.746 39.5914C382.125 42.7354 379.863 45.1572 376.962 46.8567C381.314 48.0464 384.77 50.3407 387.33 53.7397C389.89 57.0537 391.17 62.1522 391.17 69.0351C391.17 73.1139 390.573 76.8103 389.378 80.1244C388.183 83.3534 386.349 86.1151 383.874 88.4094C381.485 90.7037 378.498 92.4882 374.914 93.7628C371.33 94.9524 367.148 95.4623 362.37 95.2924H267.521Z" fill="#212CFF"/>
<path d="M493.668 55.6516C493.753 55.3117 493.796 54.9718 493.796 54.6319C493.796 54.292 493.796 53.9521 493.796 53.6122V40.4836C493.711 40.0587 493.668 39.6763 493.668 39.3364C493.668 38.9965 493.625 38.6566 493.54 38.3167V38.0618C493.455 37.6369 493.369 37.2971 493.284 37.0421C493.199 36.7022 493.113 36.3623 493.028 36.0224C493.028 35.9375 492.985 35.895 492.9 35.895C492.9 35.81 492.9 35.725 492.9 35.64C492.815 35.1302 492.601 34.5779 492.26 33.983C492.26 33.8131 492.217 33.7281 492.132 33.7281C492.132 33.6431 492.132 33.5582 492.132 33.4732C491.791 32.7934 491.535 32.326 491.364 32.0711C491.279 31.9011 491.193 31.8162 491.108 31.8162C491.108 31.7312 491.065 31.6037 490.98 31.4338C490.639 30.9239 490.34 30.5416 490.084 30.2866C489.913 30.0317 489.7 29.8193 489.444 29.6493C489.273 29.3944 489.017 29.097 488.676 28.7571C488.505 28.5022 488.164 28.2047 487.652 27.8648C487.396 27.6099 487.183 27.44 487.012 27.355C482.745 24.2109 476.26 22.6389 467.556 22.6389H453.604C453.177 22.6389 452.708 22.6814 452.196 22.7664C451.769 22.7664 451.342 22.7664 450.916 22.7664H450.404C449.977 22.8513 449.55 22.8938 449.124 22.8938C448.697 22.8938 448.27 22.9363 447.844 23.0213H447.588C446.308 23.1912 445.07 23.4037 443.876 23.6586C442.766 23.8285 441.699 24.126 440.675 24.5508C440.59 24.5508 440.505 24.5933 440.419 24.6783C440.419 24.6783 440.377 24.6783 440.291 24.6783C439.95 24.8482 439.651 24.9757 439.395 25.0607C439.139 25.1457 438.841 25.2731 438.499 25.4431C438.414 25.4431 438.329 25.4855 438.243 25.5705C438.243 25.5705 438.201 25.5705 438.115 25.5705C435.726 26.6752 433.763 28.2047 432.227 30.1592L431.843 30.5416C431.673 30.7115 431.502 30.9239 431.331 31.1789C431.246 31.4338 431.118 31.6462 430.947 31.8162C430.862 31.9861 430.819 32.0711 430.819 32.0711C430.051 33.4307 429.369 35.1727 428.771 37.2971V37.6794C428.686 38.0193 428.601 38.3167 428.515 38.5717C428.515 38.8266 428.515 39.124 428.515 39.4639C428.515 39.7188 428.473 39.8888 428.387 39.9738V55.1418C428.387 55.5666 428.387 55.949 428.387 56.2889C428.473 56.6288 428.558 57.0112 428.643 57.4361V57.691C428.814 58.5407 428.985 59.1781 429.155 59.6029C429.155 59.7729 429.198 59.9003 429.283 59.9853C429.369 60.3252 429.454 60.6226 429.539 60.8776C429.625 61.1325 429.753 61.4299 429.923 61.7698C429.923 61.8548 429.923 61.9397 429.923 62.0247C430.009 62.0247 430.051 62.0672 430.051 62.1522C430.393 62.832 430.649 63.2993 430.819 63.5543C430.905 63.7242 430.947 63.8517 430.947 63.9366C431.033 63.9366 431.118 64.0216 431.203 64.1916C431.545 64.7014 431.843 65.0838 432.099 65.3387C432.185 65.5087 432.27 65.6361 432.355 65.7211C432.441 65.8061 432.526 65.9336 432.611 66.1035C432.953 66.4434 433.251 66.6983 433.507 66.8683C433.678 67.1232 434.019 67.4206 434.531 67.7605C434.787 68.0154 435.001 68.1854 435.171 68.2704C439.609 71.4994 446.094 73.0714 454.628 72.9865H468.58C469.006 72.9865 469.433 72.9865 469.86 72.9865C470.372 72.9015 470.841 72.859 471.268 72.859H471.78C472.206 72.859 472.633 72.859 473.06 72.859C473.486 72.774 473.913 72.689 474.34 72.6041H474.596C477.156 72.3492 479.46 71.8393 481.508 71.0745C481.678 71.0745 481.807 71.032 481.892 70.9471C482.148 70.7771 482.404 70.6921 482.66 70.6921C483.001 70.6072 483.343 70.4797 483.684 70.3098C483.769 70.2248 483.812 70.1823 483.812 70.1823C483.897 70.1823 483.983 70.1398 484.068 70.0548C486.457 68.9502 488.42 67.4206 489.956 65.4662L490.212 65.2113C490.383 64.9563 490.553 64.7439 490.724 64.574C490.895 64.319 491.065 64.0641 491.236 63.8092C491.321 63.6392 491.364 63.5543 491.364 63.5543C492.217 62.0247 492.857 60.2827 493.284 58.3283C493.369 58.2433 493.412 58.1159 493.412 57.9459C493.583 57.2661 493.668 56.6713 493.668 56.1615V55.6516ZM522.724 33.983V34.238L522.852 58.7107C522.852 59.3905 522.81 60.0278 522.724 60.6226C522.724 61.2175 522.682 61.8548 522.596 62.5346V63.5543C522.511 64.1491 522.426 64.7439 522.34 65.3387C522.34 65.8486 522.255 66.4009 522.084 66.9957C521.999 67.1657 521.956 67.3781 521.956 67.6331C521.274 71.117 520.036 74.3885 518.244 77.4476C518.159 77.5326 518.073 77.6176 517.988 77.7026C517.988 77.7875 517.945 77.8725 517.86 77.9575C517.604 78.3824 517.348 78.8072 517.092 79.2321C516.836 79.657 516.537 80.0819 516.196 80.5067C515.94 80.7617 515.769 80.9741 515.684 81.144C512.868 84.628 509.113 87.5172 504.42 89.8115C504.079 89.9814 503.823 90.0664 503.652 90.0664C503.055 90.3213 502.457 90.5762 501.86 90.8312C501.348 91.0861 500.793 91.2985 500.196 91.4685C500.025 91.5535 499.897 91.5959 499.812 91.5959C499.812 91.5959 499.727 91.6384 499.556 91.7234C497.593 92.4032 495.545 92.998 493.412 93.5079C491.279 93.9328 489.017 94.2727 486.628 94.5276C486.457 94.6125 486.244 94.655 485.988 94.655L481.38 95.0374H480.228C479.375 95.1224 478.521 95.2074 477.668 95.2924C476.9 95.2924 476.046 95.2924 475.108 95.2924H448.868C432.739 95.4623 420.494 92.5307 412.131 86.4975C411.961 86.3275 411.747 86.1576 411.491 85.9876C411.321 85.8177 411.15 85.6477 410.979 85.4778C410.638 85.2228 410.297 84.9679 409.955 84.713C409.699 84.4581 409.401 84.1606 409.059 83.8207C408.718 83.5658 408.419 83.3109 408.163 83.056C407.993 82.8011 407.779 82.5036 407.523 82.1637C407.353 81.9938 407.139 81.8238 406.883 81.6539C406.713 81.399 406.542 81.144 406.371 80.8891C406.03 80.4642 405.731 80.0819 405.475 79.742C405.219 79.4021 404.963 79.0197 404.707 78.5948C404.536 78.4249 404.408 78.2549 404.323 78.085C404.323 77.915 404.238 77.7451 404.067 77.5751C403.811 77.1502 403.555 76.7254 403.299 76.3005C403.043 75.7906 402.83 75.2808 402.659 74.7709L402.275 74.0062C402.019 73.4963 401.763 72.9865 401.507 72.4766C401.336 71.8818 401.166 71.287 400.995 70.6921C400.995 70.6072 400.952 70.5222 400.867 70.4372C400.867 70.3522 400.867 70.2248 400.867 70.0548C400.696 69.46 400.526 68.8652 400.355 68.2704C400.27 67.6755 400.142 67.0382 399.971 66.3584V65.8486C399.8 65.1688 399.672 64.489 399.587 63.8092C399.587 63.0444 399.544 62.3221 399.459 61.6423V61.5149L399.331 36.9147C399.331 36.2349 399.331 35.5975 399.331 35.0027C399.416 34.4079 399.459 33.7706 399.459 33.0908C399.544 32.9208 399.587 32.6234 399.587 32.1986C399.672 31.5188 399.715 30.9239 399.715 30.4141C399.8 29.8193 399.928 29.2244 400.099 28.6296C400.099 28.4597 400.099 28.3747 400.099 28.3747C400.184 28.2897 400.227 28.1623 400.227 27.9923C400.995 24.5083 402.232 21.2368 403.939 18.1777C404.11 18.0078 404.195 17.8378 404.195 17.6679C404.536 17.243 404.835 16.8181 405.091 16.3933C405.347 15.9684 405.646 15.5435 405.987 15.1186C406.243 14.8637 406.414 14.6513 406.499 14.4813C409.401 10.9124 413.155 8.06572 417.763 5.94135L418.531 5.55896C419.129 5.30404 419.683 5.04911 420.195 4.79419C420.793 4.53926 421.39 4.32683 421.987 4.15688C422.073 4.0719 422.158 4.02942 422.243 4.02942C422.329 4.02942 422.457 3.98693 422.627 3.90196C424.59 3.22216 426.638 2.66982 428.771 2.24495C430.905 1.7351 433.166 1.35271 435.555 1.09779C435.726 1.09779 435.811 1.09779 435.811 1.09779C435.897 1.01281 436.025 0.970327 436.195 0.970327L440.803 0.587938H441.955C442.809 0.502964 443.62 0.460477 444.388 0.460477C445.241 0.460477 446.137 0.460477 447.076 0.460477L473.316 0.333009V0.460477C489.444 0.205551 501.647 3.09469 509.924 9.1279C510.265 9.38283 510.649 9.72273 511.076 10.1476C511.844 10.6574 512.527 11.2098 513.124 11.8046C513.38 12.0595 513.636 12.3569 513.892 12.6968C514.148 12.9518 514.404 13.2067 514.66 13.4616C514.831 13.6316 515.002 13.844 515.172 14.0989C515.428 14.3539 515.641 14.5663 515.812 14.7362C516.154 15.1611 516.452 15.5435 516.708 15.8834C516.964 16.2233 517.22 16.6057 517.476 17.0306C517.562 17.2005 517.775 17.5404 518.116 18.0503C518.372 18.4751 518.628 18.9425 518.884 19.4523C519.14 19.8772 519.354 20.3446 519.524 20.8544L519.908 21.6192C520.164 22.129 520.378 22.6814 520.548 23.2762C520.804 23.7861 521.018 24.3384 521.188 24.9332C521.188 25.1032 521.188 25.2306 521.188 25.3156C521.274 25.3156 521.316 25.4006 521.316 25.5705C521.487 26.1653 521.615 26.7602 521.7 27.355C521.871 27.9498 522.042 28.5871 522.212 29.2669V29.7768C522.383 30.4566 522.468 31.1789 522.468 31.9436C522.554 32.6234 522.639 33.3032 522.724 33.983Z" fill="#212CFF"/>
<path d="M563.955 19.9622V47.8764L610.291 47.7489H616.307C616.904 47.7489 617.331 47.7065 617.587 47.6215H617.843C618.526 47.5365 619.166 47.409 619.763 47.2391C620.446 47.0692 621.043 46.8992 621.555 46.7293H621.811C621.982 46.6443 622.152 46.6018 622.323 46.6018C622.494 46.5168 622.664 46.4318 622.835 46.3469C622.835 46.2619 622.92 46.2194 623.091 46.2194C624.456 45.5396 625.566 44.6474 626.419 43.5427C626.59 43.3727 626.675 43.2453 626.675 43.1603C626.76 43.0753 626.889 42.9479 627.059 42.7779V42.6505C627.571 41.8007 627.955 40.8235 628.211 39.7188V39.4639C628.297 39.294 628.339 38.9541 628.339 38.4442V38.1893C628.424 37.9344 628.467 37.552 628.467 37.0421V29.7768C628.382 29.5219 628.339 29.1395 628.339 28.6296L628.211 28.5022C628.211 28.2472 628.126 27.8648 627.955 27.355V27.2275C627.784 26.7177 627.656 26.3778 627.571 26.2078C627.571 26.1229 627.529 26.0379 627.443 25.9529L627.059 25.1881C627.059 25.1032 626.974 24.9757 626.803 24.8058C626.718 24.7208 626.59 24.5083 626.419 24.1684L626.035 23.7861C625.865 23.6161 625.736 23.4462 625.651 23.2762C625.48 23.1912 625.267 23.0213 625.011 22.7664C624.926 22.7664 624.798 22.6814 624.627 22.5114C622.323 20.8119 618.739 19.9622 613.875 19.9622H563.955ZM637.939 64.7014C637.854 64.7864 637.769 64.8289 637.683 64.8289C637.683 64.8289 637.641 64.8714 637.555 64.9563L658.035 95.2924H627.315L608.499 67.3781H563.955V95.2924H534.898V0.333009H618.995V0.460477C630.174 0.205551 638.793 2.24495 644.851 6.57866C645.193 6.91856 645.491 7.131 645.747 7.21597L649.075 10.53C649.587 11.2098 649.929 11.7621 650.099 12.187C650.27 12.272 650.441 12.4844 650.611 12.8243C650.782 13.1642 650.953 13.5041 651.123 13.844C651.294 14.0989 651.465 14.4388 651.635 14.8637C651.721 14.9487 651.763 15.0337 651.763 15.1186C651.763 15.2036 651.806 15.2886 651.891 15.3736C652.062 15.7984 652.19 16.1808 652.275 16.5207C652.446 16.8606 652.617 17.243 652.787 17.6679C652.787 17.9228 652.83 18.0927 652.915 18.1777C653.086 18.6026 653.171 19.07 653.171 19.5798C653.257 20.0047 653.342 20.4296 653.427 20.8544C653.513 21.0244 653.555 21.1094 653.555 21.1094C653.641 21.6192 653.683 22.129 653.683 22.6389C653.769 23.1487 653.854 23.7011 653.939 24.2959V41.6308C653.939 42.0556 653.939 42.523 653.939 43.0328C653.939 43.4577 653.897 43.8826 653.811 44.3075V44.9448C653.726 45.3697 653.641 45.7945 653.555 46.2194C653.555 46.6443 653.513 47.0691 653.427 47.494C653.427 47.579 653.385 47.664 653.299 47.7489C653.299 47.7489 653.299 47.7914 653.299 47.8764C652.787 50.3407 651.934 52.635 650.739 54.7594C650.654 54.8443 650.611 54.9293 650.611 55.0143C650.611 55.0143 650.569 55.0568 650.483 55.1418C650.313 55.4817 650.099 55.8216 649.843 56.1615C649.673 56.4164 649.459 56.7138 649.203 57.0537L648.819 57.4361C646.857 59.8154 644.211 61.8548 640.883 63.5543C640.713 63.5543 640.542 63.6392 640.371 63.8092C639.774 64.1491 638.963 64.4465 637.939 64.7014Z" fill="#212CFF"/>
<path d="M664.447 95.2924V75.6632H690.175V95.2924H664.447Z" fill="#212CFF"/>
<path d="M871.169 0.333009V95.2924H842.113V24.8058L804.225 95.2924H783.745L745.856 24.8058V95.2924H716.8V0.333009H763.392L793.985 57.3086L824.577 0.333009H871.169Z" fill="#212CFF"/>
<path d="M886.051 95.2924V0.333009H995.364V19.9622H915.108V38.0618H989.348V57.691H915.108V75.6632H995.364V95.2924H886.051Z" fill="#212CFF"/>
<path d="M1076.8 22.6389H1036.61V72.9865H1075.91C1084.44 73.0714 1090.92 71.4994 1095.36 68.2704C1095.7 68.1004 1096.13 67.7605 1096.64 67.2507C1097.24 66.7408 1097.62 66.3159 1097.79 65.976C1098.05 65.8061 1098.26 65.5937 1098.43 65.3387C1098.69 65.0838 1098.99 64.7014 1099.33 64.1916C1099.41 64.0216 1099.46 63.9366 1099.46 63.9366C1099.54 63.8517 1099.63 63.7242 1099.71 63.5543C1099.88 63.2993 1100.14 62.832 1100.48 62.1522C1100.48 62.0672 1100.48 62.0247 1100.48 62.0247C1100.57 61.9397 1100.61 61.8123 1100.61 61.6423C1100.95 61.0475 1101.16 60.4952 1101.25 59.9853C1101.25 59.9003 1101.25 59.8579 1101.25 59.8579C1101.33 59.7729 1101.38 59.6879 1101.38 59.6029L1101.76 57.691C1101.85 57.521 1101.89 57.4361 1101.89 57.4361C1101.97 57.0112 1102.02 56.6288 1102.02 56.2889C1102.02 55.949 1102.06 55.5666 1102.15 55.1418V42.0131C1102.15 41.6733 1102.15 41.3334 1102.15 40.9935C1102.15 40.6536 1102.1 40.3137 1102.02 39.9738V39.4639C1101.93 39.124 1101.89 38.8266 1101.89 38.5717C1101.89 38.2318 1101.85 37.9344 1101.76 37.6794C1101.76 37.5945 1101.72 37.552 1101.63 37.552C1101.63 37.467 1101.63 37.382 1101.63 37.2971C1101.21 35.3426 1100.57 33.6006 1099.71 32.0711C1099.63 31.9861 1099.59 31.9011 1099.59 31.8162C1099.41 31.5612 1099.24 31.3488 1099.07 31.1789C1098.9 30.9239 1098.73 30.7115 1098.56 30.5416C1098.56 30.4566 1098.48 30.3291 1098.31 30.1592C1096.77 28.2047 1094.81 26.6752 1092.42 25.5705C1092.33 25.5705 1092.25 25.5705 1092.16 25.5705C1092.08 25.4855 1091.99 25.4431 1091.91 25.4431C1091.56 25.2731 1090.97 25.0182 1090.11 24.6783C1090.03 24.6783 1089.99 24.6783 1089.99 24.6783C1089.99 24.5933 1089.94 24.5508 1089.86 24.5508C1087.81 23.7861 1085.51 23.2762 1082.95 23.0213H1082.56C1082.13 22.9363 1081.71 22.8938 1081.28 22.8938C1080.94 22.8938 1080.56 22.8513 1080.13 22.7664H1079.49C1079.06 22.7664 1078.64 22.7664 1078.21 22.7664C1077.78 22.6814 1077.31 22.6389 1076.8 22.6389ZM1081.67 95.2924H1007.55V0.333009H1036.61V0.460477H1083.46C1084.4 0.460477 1085.25 0.460477 1086.02 0.460477C1086.87 0.460477 1087.68 0.502964 1088.45 0.587938H1089.6C1090.45 0.672911 1091.27 0.757885 1092.03 0.842859C1092.8 0.842859 1093.57 0.885348 1094.34 0.970327C1094.42 0.970327 1094.51 1.01281 1094.59 1.09779C1094.68 1.09779 1094.81 1.09779 1094.98 1.09779C1097.37 1.35271 1099.63 1.7351 1101.76 2.24495C1103.89 2.66982 1105.94 3.22216 1107.91 3.90196C1107.99 3.98693 1108.08 4.02942 1108.16 4.02942C1108.25 4.02942 1108.37 4.0719 1108.55 4.15688C1109.57 4.49678 1110.68 4.96414 1111.87 5.55896L1112.64 5.94135C1117.42 8.23567 1121.17 11.0823 1123.91 14.4813C1124.16 14.7362 1124.33 14.9487 1124.42 15.1186C1124.76 15.5435 1125.06 15.9684 1125.31 16.3933C1125.66 16.8181 1125.95 17.243 1126.21 17.6679C1126.3 17.8378 1126.42 18.0078 1126.59 18.1777C1127.45 19.6223 1128.17 21.1943 1128.77 22.8938C1129.37 24.5083 1129.84 26.2078 1130.18 27.9923C1130.26 28.1623 1130.31 28.2897 1130.31 28.3747C1130.31 28.3747 1130.35 28.4597 1130.43 28.6296C1130.52 29.2244 1130.6 29.8193 1130.69 30.4141C1130.78 30.9239 1130.86 31.5188 1130.95 32.1986V33.0908C1131.03 33.7706 1131.07 34.4079 1131.07 35.0027C1131.16 35.5975 1131.2 36.2349 1131.2 36.9147L1131.07 61.5149V61.6423C1130.99 62.3221 1130.9 63.0444 1130.82 63.8092C1130.82 64.489 1130.73 65.1688 1130.56 65.8486V66.3584C1130.39 67.0382 1130.22 67.6755 1130.05 68.2704C1129.96 68.8652 1129.84 69.46 1129.67 70.0548C1129.58 70.2248 1129.54 70.3522 1129.54 70.4372C1129.54 70.5222 1129.49 70.6072 1129.41 70.6921C1129.15 71.8818 1128.77 72.9865 1128.26 74.0062C1128.09 74.3461 1127.96 74.6435 1127.87 74.8984C1127.7 75.3233 1127.49 75.7906 1127.23 76.3005C1126.98 76.7254 1126.72 77.1502 1126.47 77.5751C1126.12 78.085 1125.91 78.4249 1125.83 78.5948C1125.4 79.2746 1124.93 79.9119 1124.42 80.5067C1123.99 81.1016 1123.52 81.6539 1123.01 82.1637C1121.9 83.6083 1120.71 84.713 1119.43 85.4778C1119.25 85.6477 1119.04 85.8177 1118.79 85.9876C1118.61 86.1576 1118.44 86.3275 1118.27 86.4975C1110.08 92.5307 1097.88 95.4623 1081.67 95.2924Z" fill="#212CFF"/>
<path d="M1143.18 95.2924V0.333009H1172.24V95.2924H1143.18Z" fill="#212CFF"/>
<path d="M1249.39 19.7073L1228.53 58.4558H1270.13L1249.39 19.7073ZM1208.69 95.2924H1177.97L1229.04 0.333009H1269.74L1320.69 95.2924H1289.97L1280.75 78.085H1217.9L1208.69 95.2924Z" fill="#212CFF"/>
</svg>
